<?xml version="1.0" encoding="iso-8859-1"?>
<!-- Generator: Adobe Illustrator 19.0.0, SVG Export Plug-In . SVG Version: 6.00 Build 0)  -->
<svg version="1.1" id="Layer_1" xmlns="http://www.w3.org/2000/svg" xmlns:xlink="http://www.w3.org/1999/xlink" x="0px" y="0px"
	 viewBox="0 0 512 512" style="enable-background:new 0 0 512 512;" xml:space="preserve">
<g transform="translate(1 1)">
	<path style="fill:#FFDD09;" d="M7.533,20.333v409.6h381.44l-6.827-6.827c-7.68-7.68-7.68-20.48,0-28.16s20.48-7.68,28.16,0
		l34.987,34.987h57.173v-409.6H7.533z"/>
	<polygon style="fill:#FD9808;" points="485.4,429.933 502.467,429.933 502.467,20.333 485.4,20.333 	"/>
	<polygon style="fill:#FFFFFF;" points="7.533,429.933 24.6,429.933 24.6,20.333 7.533,20.333 	"/>
	<g>
		<path style="fill:#FCC309;" d="M463.213,486.253l10.24-10.24c5.12-5.12,5.12-12.8,0-17.92L411.16,395.8
			c-7.68-7.68-20.48-7.68-28.16,0l0,0c-7.68,7.68-7.68,20.48,0,28.16l62.293,62.293C449.56,490.52,458.093,490.52,463.213,486.253"
			/>
		<path style="fill:#FCC309;" d="M423.107,464.067l28.16-28.16"/>
	</g>
	<path style="fill:#54C9FD;" d="M391.533,293.4c0-61.44-49.493-110.933-110.933-110.933S169.667,231.96,169.667,293.4
		S219.16,404.333,280.6,404.333S391.533,354.84,391.533,293.4"/>
	<path style="fill:#33A9F8;" d="M280.6,182.467c-4.267,0-8.533,0-12.8,0.853c55.467,5.973,98.133,52.907,98.133,110.08
		S323.267,397.507,267.8,403.48c4.267,0.853,8.533,0.853,12.8,0.853c61.44,0,110.933-49.493,110.933-110.933
		S342.04,182.467,280.6,182.467"/>
	<path d="M280.6,412.867c-65.707,0-119.467-53.76-119.467-119.467s53.76-119.467,119.467-119.467s119.467,53.76,119.467,119.467
		S346.307,412.867,280.6,412.867z M280.6,191c-56.32,0-102.4,46.08-102.4,102.4s46.08,102.4,102.4,102.4S383,349.72,383,293.4
		S336.92,191,280.6,191z"/>
	<path d="M203.8,301.933c-5.12,0-8.533-3.413-8.533-8.533c0-46.933,38.4-85.333,85.333-85.333c5.12,0,8.533,3.413,8.533,8.533
		c0,5.12-3.413,8.533-8.533,8.533c-37.547,0-68.267,30.72-68.267,68.267C212.333,298.52,208.92,301.933,203.8,301.933z"/>
	<path d="M41.667,387.267c-5.12,0-8.533-3.413-8.533-8.533V63c0-5.12,3.413-8.533,8.533-8.533S50.2,57.88,50.2,63v315.733
		C50.2,383.853,46.787,387.267,41.667,387.267z"/>
	<path d="M468.333,387.267c-5.12,0-8.533-3.413-8.533-8.533V63c0-5.12,3.413-8.533,8.533-8.533c5.12,0,8.533,3.413,8.533,8.533
		v315.733C476.867,383.853,473.453,387.267,468.333,387.267z"/>
	<path d="M75.8,319c-5.12,0-8.533-3.413-8.533-8.533V63c0-5.12,3.413-8.533,8.533-8.533c5.12,0,8.533,3.413,8.533,8.533v247.467
		C84.333,315.587,80.92,319,75.8,319z"/>
	<path d="M101.4,319c-5.12,0-8.533-3.413-8.533-8.533V63c0-5.12,3.413-8.533,8.533-8.533c5.12,0,8.533,3.413,8.533,8.533v247.467
		C109.933,315.587,106.52,319,101.4,319z"/>
	<path d="M144.067,319c-5.12,0-8.533-3.413-8.533-8.533V63c0-5.12,3.413-8.533,8.533-8.533c5.12,0,8.533,3.413,8.533,8.533v247.467
		C152.6,315.587,149.187,319,144.067,319z"/>
	<path d="M169.667,301.933c-5.12,0-8.533-3.413-8.533-8.533V63c0-5.12,3.413-8.533,8.533-8.533c5.12,0,8.533,3.413,8.533,8.533
		v230.4C178.2,298.52,174.787,301.933,169.667,301.933z"/>
	<path d="M195.267,231.107c-5.12,0-8.533-3.413-8.533-8.533V63c0-5.12,3.413-8.533,8.533-8.533c5.12,0,8.533,3.413,8.533,8.533
		v159.573C203.8,226.84,200.387,231.107,195.267,231.107z"/>
	<path d="M246.467,196.12c-5.12,0-8.533-3.413-8.533-8.533V63c0-5.12,3.413-8.533,8.533-8.533c5.12,0,8.533,3.413,8.533,8.533
		v124.587C255,192.707,251.587,196.12,246.467,196.12z"/>
	<path d="M289.133,191c-5.12,0-8.533-3.413-8.533-8.533V63c0-5.12,3.413-8.533,8.533-8.533c5.12,0,8.533,3.413,8.533,8.533v119.467
		C297.667,187.587,294.253,191,289.133,191z"/>
	<path d="M314.733,196.12c-5.12,0-8.533-3.413-8.533-8.533V63c0-5.12,3.413-8.533,8.533-8.533c5.12,0,8.533,3.413,8.533,8.533
		v124.587C323.267,192.707,319.853,196.12,314.733,196.12z"/>
	<path d="M357.4,221.72c-5.12,0-8.533-3.413-8.533-8.533V63c0-5.12,3.413-8.533,8.533-8.533s8.533,3.413,8.533,8.533v150.187
		C365.933,218.307,362.52,221.72,357.4,221.72z"/>
	<path d="M383,259.267c-5.12,0-8.533-3.413-8.533-8.533V63c0-5.12,3.413-8.533,8.533-8.533c5.12,0,8.533,3.413,8.533,8.533v187.733
		C391.533,255,388.12,259.267,383,259.267z"/>
	<path d="M434.2,319c-5.12,0-8.533-3.413-8.533-8.533V63c0-5.12,3.413-8.533,8.533-8.533c5.12,0,8.533,3.413,8.533,8.533v247.467
		C442.733,315.587,439.32,319,434.2,319z"/>
	<path d="M75.8,370.2c-5.12,0-8.533-3.413-8.533-8.533v-8.533c0-5.12,3.413-8.533,8.533-8.533c5.12,0,8.533,3.413,8.533,8.533v8.533
		C84.333,366.787,80.92,370.2,75.8,370.2z"/>
	<path d="M101.4,370.2c-5.12,0-8.533-3.413-8.533-8.533v-8.533c0-5.12,3.413-8.533,8.533-8.533c5.12,0,8.533,3.413,8.533,8.533
		v8.533C109.933,366.787,106.52,370.2,101.4,370.2z"/>
	<path d="M127,370.2c-5.12,0-8.533-3.413-8.533-8.533v-8.533c0-5.12,3.413-8.533,8.533-8.533s8.533,3.413,8.533,8.533v8.533
		C135.533,366.787,132.12,370.2,127,370.2z"/>
	<path d="M152.6,370.2c-5.12,0-8.533-3.413-8.533-8.533v-8.533c0-5.12,3.413-8.533,8.533-8.533c5.12,0,8.533,3.413,8.533,8.533
		v8.533C161.133,366.787,157.72,370.2,152.6,370.2z"/>
	<path d="M408.6,370.2c-5.12,0-8.533-3.413-8.533-8.533v-8.533c0-5.12,3.413-8.533,8.533-8.533c5.12,0,8.533,3.413,8.533,8.533
		v8.533C417.133,366.787,413.72,370.2,408.6,370.2z"/>
	<path d="M434.2,370.2c-5.12,0-8.533-3.413-8.533-8.533v-8.533c0-5.12,3.413-8.533,8.533-8.533c5.12,0,8.533,3.413,8.533,8.533
		v8.533C442.733,366.787,439.32,370.2,434.2,370.2z"/>
	<path d="M453.827,498.2c-5.973,0-11.093-2.56-15.36-5.973l-62.293-62.293c-5.12-5.12-8.533-12.8-8.533-20.48
		s2.56-14.507,8.533-20.48c11.093-11.093,29.013-11.093,40.96,0l62.293,62.293c4.267,4.267,5.973,9.387,5.973,15.36
		c0,5.973-2.56,11.093-5.973,15.36l-10.24,10.24C464.92,495.64,459.8,498.2,453.827,498.2z M396.653,397.507
		c-2.56,0-5.973,0.853-8.533,3.413c-2.56,2.56-3.413,5.12-3.413,8.533c0,3.413,0.853,5.973,3.413,8.533l62.293,62.293
		c1.707,1.707,4.267,1.707,5.973,0l10.24-10.24c0.853-0.853,0.853-1.707,0.853-3.413s-0.853-2.56-0.853-3.413l-62.293-62.293
		C402.627,399.213,399.213,397.507,396.653,397.507z"/>
	<rect x="361.5" y="367.209" transform="matrix(-0.7066 0.7076 -0.7076 -0.7066 902.814 392.513)" width="17.067" height="32.426"/>
	
		<rect x="416.874" y="440.984" transform="matrix(-0.7076 0.7066 -0.7066 -0.7076 1063.7322 458.8624)" width="40.106" height="17.067"/>
	<path d="M511,438.467h-69.12l-37.547-37.547c-4.267-4.267-11.947-4.267-16.213,0c-2.56,2.56-3.413,5.12-3.413,8.533
		c0,3.413,0.853,5.973,3.413,8.533l21.333,21.333H-1V11.8h512V438.467z M448.707,421.4h45.227V28.867H16.067V421.4H370.2
		c-1.707-3.413-2.56-7.68-2.56-11.947c0-7.68,3.413-14.507,8.533-20.48c11.093-11.093,29.013-11.093,40.107,0L448.707,421.4z"/>
</g>
<g>
</g>
<g>
</g>
<g>
</g>
<g>
</g>
<g>
</g>
<g>
</g>
<g>
</g>
<g>
</g>
<g>
</g>
<g>
</g>
<g>
</g>
<g>
</g>
<g>
</g>
<g>
</g>
<g>
</g>
</svg>
