<?xml version="1.0" encoding="iso-8859-1"?>
<!-- Generator: Adobe Illustrator 18.0.0, SVG Export Plug-In . SVG Version: 6.00 Build 0)  -->
<!DOCTYPE svg PUBLIC "-//W3C//DTD SVG 1.1//EN" "http://www.w3.org/Graphics/SVG/1.1/DTD/svg11.dtd">
<svg version="1.1" id="Capa_1" xmlns="http://www.w3.org/2000/svg" xmlns:xlink="http://www.w3.org/1999/xlink" x="0px" y="0px"
	 viewBox="0 0 70.47 70.47" style="enable-background:new 0 0 70.47 70.47;" xml:space="preserve">
<g>
	<path style="fill:#231F20;" d="M0.24,7.335c6.786-0.057,13.071-0.188,19.354-0.139c6.11,0.047,12.219,0.305,18.33,0.424
		c4.874,0.095,9.749,0.106,14.624,0.181c3.389,0.052,6.777,0.195,10.166,0.209c1.732,0.007,3.464-0.172,5.194-0.285
		c2.031-0.132,2.385,0.184,2.398,2.103c0.055,7.79,0.17,15.579,0.162,23.368c-0.004,4.796-0.222,9.59-0.283,14.386
		c-0.055,4.226-0.047,8.454-0.026,12.681c0.013,2.596-0.567,3.108-3.243,3.012c-6.866-0.245-13.733-0.504-20.603-0.625
		c-10.184-0.18-20.37-0.23-30.554-0.366c-4.299-0.057-8.598-0.194-12.897-0.284c-1.611-0.034-2.556-0.834-2.59-2.271
		c-0.1-4.135-0.272-8.27-0.264-12.405c0.016-7.432,0.192-14.863,0.207-22.295c0.01-4.791-0.167-9.581-0.215-14.372
		C-0.011,9.528,0.159,8.399,0.24,7.335z M67.679,61.079c0.453-17.301,1.393-34.059,0.271-50.921
		c-2.269-0.139-4.403-0.338-6.541-0.386C55.036,9.63,48.662,9.544,42.288,9.445c-7.121-0.11-14.242-0.248-21.363-0.301
		C15.784,9.107,10.643,9.172,5.502,9.233C4.458,9.246,3.415,9.447,2.278,9.572c0.326,16.802-1.022,33.461,0.478,50.154
		C24.547,60.825,46.022,60.723,67.679,61.079z"/>
	<path style="fill:#231F20;" d="M4.283,10.226c3.933-0.033,7.65-0.061,11.368-0.096c3.449-0.033,6.9-0.181,10.345-0.084
		c4.209,0.119,8.41,0.502,12.618,0.653c3.637,0.131,7.279,0.092,10.919,0.138c4.691,0.058,9.383,0.189,14.073,0.152
		c1.42-0.011,2,0.655,2.176,1.816c0.222,1.467,0.362,2.957,0.396,4.44c0.076,3.458,0.094,6.917,0.087,10.375
		c-0.013,7.197-0.06,14.393-0.086,21.59c-0.01,2.649-0.002,5.299-0.004,7.948c0,1.796-0.329,2.222-2.119,2.26
		c-2.146,0.045-4.296-0.015-6.442-0.084c-3.882-0.126-7.766-0.246-11.644-0.454c-6.445-0.347-12.883-0.828-19.33-1.12
		c-3.378-0.153-6.77-0.05-10.154-0.015c-3.54,0.037-7.092-0.247-10.603,0.6c-1.366,0.33-1.82-0.143-1.942-1.493
		c-0.052-0.576-0.087-1.169-0.013-1.738c0.785-6.019,0.323-12.062,0.29-18.088c-0.036-6.683-0.414-13.363-0.616-20.044
		c-0.05-1.652-0.042-3.309,0.04-4.959C3.668,11.478,4.013,10.95,4.283,10.226z M5.797,55.633c0.741,0.191,0.976,0.303,1.209,0.302
		c4.714-0.013,9.431-0.123,14.144-0.038c4.126,0.075,8.248,0.369,12.372,0.561c3.636,0.169,7.272,0.355,10.91,0.492
		c4.964,0.187,9.929,0.322,14.892,0.504c1.531,0.056,3.06,0.19,4.817,0.302c0.096-4.607,0.257-8.895,0.259-13.184
		c0.005-8.861-0.05-17.723-0.143-26.584c-0.017-1.547-0.337-3.09-0.524-4.696c-0.772-0.102-1.33-0.229-1.891-0.241
		c-5.208-0.111-10.418-0.149-15.624-0.314c-6.126-0.194-12.247-0.588-18.373-0.721c-5.715-0.125-11.436-0.046-17.154-0.006
		c-1.789,0.012-3.577,0.189-5.256,0.285C5.558,26.95,5.677,41.252,5.797,55.633z"/>
	<path style="fill:#231F20;" d="M13.707,51.221c0.124-4.519,0.28-8.898,0.355-13.279c0.08-4.725,0.092-9.451,0.116-14.177
		c0.009-1.824-0.072-3.649-0.038-5.471c0.025-1.352,0.65-1.933,1.96-2.01c2.806-0.166,3.776,0.982,3.632,3.86
		c-0.269,5.353-0.421,10.711-0.58,16.069c-0.136,4.628-0.197,9.259-0.323,13.888c-0.061,2.203-0.659,2.665-2.733,2.118
		C15.385,52.031,14.724,51.653,13.707,51.221z"/>
	<path style="fill:#231F20;" d="M40.662,53.315c-1.666-0.201-2.963-0.358-4.247-0.513c-0.969-2.439-0.124-4.742-0.064-7.007
		c0.118-4.458,0.547-8.907,0.798-13.363c0.252-4.458,0.43-8.919,0.672-13.378c0.059-1.077,0.146-2.071,1.591-2.425
		c2.089-0.512,2.916,0.116,2.786,2.288c-0.261,4.371-0.519,8.745-0.644,13.122c-0.178,6.207-0.219,12.419-0.362,18.627
		C41.173,51.447,40.888,52.223,40.662,53.315z"/>
	<path style="fill:#231F20;" d="M9.243,52.784c-0.017-2.006-0.076-3.799-0.038-5.589c0.096-4.547,0.265-9.093,0.351-13.641
		c0.097-5.117,0.138-10.236,0.198-15.354c0.004-0.33-0.186-0.759-0.038-0.969c0.3-0.427,0.748-0.979,1.175-1.015
		c0.349-0.03,0.971,0.555,1.087,0.974c0.193,0.693,0.124,1.476,0.082,2.216c-0.148,2.639-0.436,5.274-0.48,7.915
		c-0.13,7.76-0.199,15.522-0.21,23.283C11.367,51.835,11.307,52.715,9.243,52.784z"/>
	<path style="fill:#231F20;" d="M36.429,16.361c0.045,0.585,0.124,0.989,0.101,1.387c-0.232,3.967-0.506,7.932-0.72,11.9
		c-0.325,6.031-0.635,12.063-0.89,18.098c-0.044,1.061,0.158,2.145,0.352,3.199c0.245,1.332-0.244,2.056-1.671,2.293
		c-0.746-0.754-0.805-1.661-0.748-2.684c0.27-4.943,0.498-9.889,0.712-14.835c0.245-5.624,0.436-11.25,0.701-16.872
		C34.362,16.806,34.483,16.738,36.429,16.361z"/>
	<path style="fill:#231F20;" d="M56.433,52.882c0.074-4.827,0.103-9.446,0.226-14.063c0.184-6.856,0.444-13.709,0.64-20.565
		c0.024-0.846,0.135-1.555,1.145-1.518c0.908,0.033,0.964,0.829,0.942,1.475c-0.066,1.985-0.274,3.968-0.305,5.953
		c-0.136,8.846-0.233,17.693-0.332,26.54C58.727,52.571,58.623,52.71,56.433,52.882z"/>
	<path style="fill:#231F20;" d="M32.468,15.883c1.442,1.692,1.003,3.049,0.935,4.308c-0.544,10.066-1.435,20.119-1.128,30.217
		c0.049,1.609,0.049,1.609-2.192,1.912c-0.081-0.798-0.259-1.595-0.228-2.384c0.264-6.771,0.541-13.542,0.867-20.31
		c0.187-3.859,0.442-7.716,0.75-11.567C31.52,17.445,32.002,16.866,32.468,15.883z"/>
	<path style="fill:#231F20;" d="M52.714,52.519c-0.027-3.311-0.149-6.444-0.06-9.571c0.187-6.538,0.494-13.072,0.729-19.609
		c0.057-1.572,0.044-3.146,0.022-4.719c-0.015-1.046,0.29-1.774,1.811-1.861c0.111,0.829,0.341,1.675,0.318,2.515
		c-0.106,3.972-0.327,7.941-0.42,11.913c-0.151,6.455-0.243,12.911-0.337,19.367C54.76,51.816,54.39,52.641,52.714,52.519z"/>
	<path style="fill:#231F20;" d="M29.968,16.962c0.094,0.682,0.285,1.342,0.258,1.993c-0.21,5.036-0.492,10.068-0.691,15.105
		c-0.221,5.618-0.383,11.239-0.557,16.859c-0.026,0.824-0.207,1.545-1.175,1.564c-1.013,0.02-1.133-0.757-1.119-1.542
		c0.022-1.16,0.055-2.32,0.106-3.479c0.403-9.263,0.814-18.526,1.216-27.789C28.057,18.483,28.084,17.299,29.968,16.962z"/>
	<path style="fill:#231F20;" d="M51.46,17.126c0.129,0.956,0.294,1.578,0.285,2.198c-0.089,6.116-0.202,12.232-0.315,18.349
		c-0.04,2.149-0.123,4.297-0.141,6.446c-0.019,2.148,0.035,4.298,0.031,6.447c-0.003,1.578-0.197,1.724-2.11,1.742
		c-0.019-2.199-0.073-4.4-0.049-6.6c0.095-8.593,0.218-17.186,0.321-25.779C49.504,18.224,49.487,18.224,51.46,17.126z"/>
	<path style="fill:#231F20;" d="M20.806,43.869c0.098-6.775,0.18-13.55,0.305-20.325c0.035-1.894,0.201-3.785,0.295-5.678
		c0.037-0.738,0.292-1.339,1.102-1.386c0.922-0.054,1.002,0.707,1.054,1.358c0.052,0.656-0.004,1.321-0.016,1.982
		c-0.177,10.142-0.351,20.284-0.543,30.425c-0.009,0.473-0.063,1.036-0.326,1.385c-0.242,0.321-0.794,0.553-1.206,0.546
		c-0.235-0.004-0.616-0.541-0.661-0.875c-0.111-0.814-0.071-1.649-0.08-2.476c-0.019-1.652-0.029-3.305-0.043-4.958
		C20.726,43.869,20.766,43.869,20.806,43.869z"/>
	<path style="fill:#231F20;" d="M42.702,52.541c-0.138-1.108-0.39-2.139-0.369-3.165c0.074-3.717,0.256-7.432,0.369-11.148
		c0.198-6.506,0.381-13.013,0.559-19.52c0.023-0.839-0.094-1.734,1.532-1.611c0.101,0.963,0.313,1.983,0.298,2.999
		c-0.13,9.259-0.304,18.518-0.447,27.776c-0.01,0.653,0.111,1.308,0.181,1.961C44.989,51.371,44.784,51.662,42.702,52.541z"/>
</g>
<g>
</g>
<g>
</g>
<g>
</g>
<g>
</g>
<g>
</g>
<g>
</g>
<g>
</g>
<g>
</g>
<g>
</g>
<g>
</g>
<g>
</g>
<g>
</g>
<g>
</g>
<g>
</g>
<g>
</g>
</svg>
