<?xml version="1.0" encoding="iso-8859-1"?>
<!-- Generator: Adobe Illustrator 19.0.0, SVG Export Plug-In . SVG Version: 6.00 Build 0)  -->
<svg version="1.1" id="Layer_1" xmlns="http://www.w3.org/2000/svg" xmlns:xlink="http://www.w3.org/1999/xlink" x="0px" y="0px"
	 viewBox="0 0 502.001 502.001" style="enable-background:new 0 0 502.001 502.001;" xml:space="preserve">
<g>
	<g>
		<g>
			<path d="M59.906,0H15.769c-5.523,0-10,4.477-10,10v343.068c0,5.523,4.477,10,10,10h44.137c5.523,0,10-4.477,10-10V10
				C69.906,4.477,65.429,0,59.906,0z M49.906,343.068H25.769V20h24.137V343.068z"/>
			<path d="M208.368,0h-44.137c-5.523,0-10,4.477-10,10v343.068c0,5.523,4.477,10,10,10h44.137c5.523,0,10-4.477,10-10V10
				C218.368,4.477,213.891,0,208.368,0z M198.368,343.068h-24.137V20h24.137V343.068z"/>
			<path d="M360.922,236.958c14.971,4.588,28.821,12.856,40.054,23.91c1.908,1.878,4.441,2.873,7.016,2.873
				c1.302,0,2.614-0.255,3.862-0.778c3.717-1.557,6.136-5.193,6.136-9.223V10c0-5.523-4.477-10-10-10h-44.138
				c-5.523,0-10,4.477-10,10v217.397C353.852,231.791,356.721,235.67,360.922,236.958z M373.852,20h24.138v212.734
				c-7.544-5.07-15.657-9.269-24.138-12.479V20z"/>
			<path d="M252.575,273.268c17.607-24.27,44.816-39.026,74.651-40.485c5.326-0.26,9.511-4.655,9.511-9.988V10
				c0-5.523-4.477-10-10-10h-82.256c-5.523,0-10,4.477-10,10v257.396c0,4.334,2.791,8.174,6.913,9.512
				c1.016,0.33,2.056,0.489,3.085,0.489C247.622,277.397,250.658,275.912,252.575,273.268z M254.481,20h62.256v193.654
				c-23.253,3.01-44.806,12.791-62.256,28.039V20z"/>
			<path d="M128.119,0H95.016c-5.523,0-10,4.477-10,10v343.068c0,5.523,4.477,10,10,10h33.103c5.523,0,10-4.477,10-10V10
				C138.119,4.477,133.642,0,128.119,0z M118.119,343.068h-13.103V20h13.103V343.068z"/>
			<path d="M446.108,363.068h33.103c5.523,0,10-4.477,10-10V10c0-5.523-4.477-10-10-10h-33.103c-5.523,0-10,4.477-10,10v343.068
				C436.108,358.591,440.585,363.068,446.108,363.068z M456.108,20h13.103v323.068h-13.103V20z"/>
			<path d="M493.304,484.929l-93.699-93.699c11.629-14.681,18.599-33.212,18.599-53.352c0-47.472-38.622-86.094-86.094-86.094
				s-86.094,38.622-86.094,86.094c0,47.473,38.622,86.094,86.094,86.094c20.14,0,38.672-6.97,53.352-18.599l93.699,93.699
				c1.953,1.953,4.512,2.929,7.071,2.929s5.119-0.976,7.071-2.929C497.209,495.166,497.209,488.834,493.304,484.929z
				 M332.111,403.971c-36.444,0-66.094-29.649-66.094-66.094c0-36.444,29.649-66.094,66.094-66.094s66.094,29.649,66.094,66.094
				S368.555,403.971,332.111,403.971z"/>
			<path d="M332.11,371.872c-5.27,0-10.317-1.17-15.001-3.478c-4.954-2.44-10.949-0.404-13.39,4.551
				c-2.441,4.954-0.403,10.95,4.551,13.39c7.458,3.674,15.479,5.537,23.84,5.537c5.523,0,10-4.477,10-10
				S337.633,371.872,332.11,371.872z"/>
			<path d="M332.111,283.884c-29.772,0-53.994,24.222-53.994,53.994c0,8.258,1.819,16.189,5.405,23.571
				c1.73,3.56,5.293,5.632,9.002,5.632c1.466,0,2.956-0.325,4.363-1.007c4.968-2.414,7.039-8.397,4.625-13.365
				c-2.253-4.636-3.395-9.626-3.395-14.831c0-18.744,15.25-33.994,33.994-33.994c5.523,0,10-4.477,10-10
				S337.634,283.884,332.111,283.884z"/>
			<path d="M274.574,31.097c-5.523,0-10,4.477-10,10v77.24c0,5.523,4.477,10,10,10s10-4.477,10-10v-77.24
				C284.574,35.574,280.097,31.097,274.574,31.097z"/>
			<path d="M274.574,139.434c-5.523,0-10,4.477-10,10v11.034c0,5.523,4.477,10,10,10s10-4.477,10-10v-11.034
				C284.574,143.911,280.097,139.434,274.574,139.434z"/>
		</g>
	</g>
</g>
<g>
</g>
<g>
</g>
<g>
</g>
<g>
</g>
<g>
</g>
<g>
</g>
<g>
</g>
<g>
</g>
<g>
</g>
<g>
</g>
<g>
</g>
<g>
</g>
<g>
</g>
<g>
</g>
<g>
</g>
</svg>
